<svg width="14" height="10" viewBox="0 0 14 10" fill="none" xmlns="http://www.w3.org/2000/svg">
<path id="Path" fill-rule="evenodd" clip-rule="evenodd" d="M14 5.00015C14 4.72401 13.7761 4.50015 13.5 4.50015H1.70698L4.85398 1.35415C4.98045 1.22768 5.02984 1.04335 4.98355 0.870582C4.93726 0.697818 4.80232 0.562874 4.62955 0.516582C4.45679 0.47029 4.27245 0.519683 4.14598 0.646155L0.145978 4.64615C0.0519366 4.73996 -0.000915527 4.86733 -0.000915527 5.00015C-0.000915527 5.13298 0.0519366 5.26035 0.145978 5.35415L4.14598 9.35415C4.27245 9.48063 4.45679 9.53002 4.62955 9.48373C4.80232 9.43744 4.93726 9.30249 4.98355 9.12973C5.02984 8.95696 4.98045 8.77263 4.85398 8.64615L1.70698 5.50015H13.5C13.7761 5.50015 14 5.2763 14 5.00015Z" fill="white"/>
</svg>
